<svg version="1" xmlns="http://www.w3.org/2000/svg" width="613.333" height="613.333" viewBox="0 0 460.000000 460.000000"><path d="M233.2 31.8c-4.5 2.7-6.1 4.1-5.6 5.2.4.8.7 2.1.7 2.7 0 .7.4 1.3.8 1.3.6 0 4.7 5.9 5.8 8.4.2.6 6.9 11.8 14.9 25 7.9 13.1 15.2 25.3 16.2 27 1 1.7 35.9 59.8 77.5 129.1 41.7 69.3 82.3 136.9 90.3 150.2 8 13.4 14.7 24.1 14.9 23.9.2-.2-1.3-3.2-3.3-6.7-4.8-8.6-9.1-16.3-12.3-22.4-1.4-2.8-2.9-5.2-3.2-5.5-.3-.3-2-3.4-3.8-7-1.8-3.6-4.2-7.7-5.2-9.2-1-1.4-1.9-2.8-1.9-3.1 0-.3-6.2-11.7-13.8-25.4-7.6-13.6-15.2-27.3-16.9-30.3-1.7-3-4.1-7.5-5.5-10-4-7-37-66.5-48.3-87-5.7-10.2-12.3-22.1-14.7-26.5-2.5-4.4-5.8-10.5-7.5-13.5-1.7-3-4.2-7.5-5.6-10-1.4-2.5-10.5-18.9-20.2-36.5-9.8-17.6-18.9-34-20.3-36.5-1.3-2.5-7.4-13.5-13.5-24.5S241.2 30 240.6 29.3c-.8-.8-2.7-.2-7.4 2.5zM161 152.2C126.2 210.1 78.9 288.8 55.9 327c-23 38.2-42.2 70.1-42.6 70.9-.3.8-3.5 6.1-7 11.8L0 420l5.5 3.5c3 2 6.1 3.8 6.8 4.1 1.1.4 11.3-17.2 37.6-65 1.8-3.4 6.8-12.4 11.1-20.1 12-21.5 13.3-23.8 14.4-26 2.8-5.2 26.8-48.2 27.6-49.5.7-1.2 36.6-66 64-115.5 1.5-2.8 11.9-21.4 23-41.5s21.6-39 23.3-42c4.1-7.6 7.7-13.9 9.9-17.8 1.1-1.7 1.7-3.2 1.5-3.2-.3 0-29 47.4-63.7 105.2zM228.4 78.8c-3.6 3.5-3.9 4.2-3.7 8.8.1 2.7.4 13 .8 22.9.3 9.9.8 21.6 1 26 .2 4.4.7 17 1.1 28 1 30.3 1.1 30.5 1.9 53 .8 19 1 24.4 1.4 29.7.1 1.1.9 1.8 2.1 1.8 1.8 0 2-.7 2.1-7.3.1-3.9.2-9.2.4-11.7.1-2.5.5-12.2.9-21.5.4-9.4.9-20.8 1.1-25.5 1.6-33.3 2.2-45.7 3-65.5.3-7.2.8-18 1.1-24l.5-11-4-4-4.1-3.9-.1 23.4c-.1 36.8-.2 38-.8 37.6-.3-.2-.6-14-.6-30.5V75c-.1 0-1.9 1.7-4.1 3.8zm5.2 65.2c.1 3.9-.1 7-.5 7-.3 0-.7-3.2-.7-7 0-3.9.2-7 .5-7s.7 3.2.7 7zm-.1 17.9c0 4.9-.3 9.2-.5 9.5-.3.3-.5-4-.5-9.4s.3-9.7.6-9.5c.3.2.5 4.4.4 9.4zm-.3 13.8c-.3 1.6-.7 2.2-1 1.5-.4-1.3.4-4.2 1.1-4.2.2 0 .2 1.2-.1 2.7zm.8 4.3c0 .5-.5 1-1.1 1-.5 0-.7-.5-.4-1 .3-.6.8-1 1.1-1 .2 0 .4.4.4 1zm-.7 4c.3 1.1.1 1.8-.4 1.4-.5-.3-.9-1.2-.9-2 0-2 .7-1.7 1.3.6zm-.6 5.2c-.3.8-.6.5-.6-.6-.1-1.1.2-1.7.5-1.3.3.3.4 1.2.1 1.9zm0 4c-.3.8-.6.5-.6-.6-.1-1.1.2-1.7.5-1.3.3.3.4 1.2.1 1.9zm0 4c-.3.8-.6.5-.6-.6-.1-1.1.2-1.7.5-1.3.3.3.4 1.2.1 1.9zm0 11c-.3.8-.6.5-.6-.6-.1-1.1.2-1.7.5-1.3.3.3.4 1.2.1 1.9zM204.6 110c-1.5 2.8-2.5 5.8-2.2 6.8.3.9.8 3.5 1.1 5.7.2 2.2.9 6.4 1.5 9.2.5 2.9 1.2 7.4 1.6 10 .3 2.6.9 5.2 1.2 5.8.3.7.1.7-.6 0-.5-.6-1.3-3.3-1.6-6-.4-2.8-.9-5.7-1.1-6.5-.4-1.5-1.1-4.7-2.1-11-.5-3-.9-4.9-1.4-7 0-.3-1.2 1.3-2.6 3.5-2.4 3.9-2.5 4.8-1 12 .3 1.1 2.1 9.6 4.1 19 2.1 9.3 3.9 17.9 4.1 19 .2 1.1 2.2 10.2 4.3 20.2 2.2 9.9 4.3 19.6 4.6 21.5.3 1.8 1 4.6 1.5 6.3.5 1.6 1.2 4.6 1.5 6.5.7 4.1 4.3 20.7 5.1 23.1.3 1.1 1.2 1.5 2.3 1.2 1.5-.4 1.7-1.1 1-5.6-.4-2.9-1-7.2-1.4-9.7-.3-2.5-.8-5.6-1-7-.2-1.4-.6-5.2-1-8.5-.7-6.8-1.3-11.5-2.1-16.3-.5-3.1-.8-5.4-1.9-15.2-.3-2.5-.8-6.1-1-8-.3-1.9-.7-4.9-1-6.5-.2-1.7-1.5-12.2-3-23.5s-2.8-21.9-3.1-23.5c-.2-1.7-.9-6.8-1.4-11.5-.6-4.6-1.2-8.6-1.4-8.7-.1-.2-1.5 1.9-3 4.7zm3.7 41c.3 1.1.1 2-.4 2s-.9-.9-.9-2 .2-2 .4-2 .6.9.9 2zm1.7 10.5c.6 3.9 1.3 7.9 1.6 9 .4 1.6.3 1.7-.4.5-.8-1.2-3.2-13.8-3.2-16.6 0-2.6 1.1 1.2 2 7.1zm2.9 16.5c0 .9-.4.8-.9-.5-.5-1.1-.9-2.7-.9-3.5 0-.9.4-.8.9.5.5 1.1.9 2.7.9 3.5zm.8 8.2c-.3.7-.5.2-.5-1.2s.2-1.9.5-1.3c.2.7.2 1.9 0 2.5zm1.5 5.3c.3 1.3.1 2.2-.3 1.9-.9-.5-1.3-4.4-.5-4.4.2 0 .6 1.1.8 2.5zm2.1 11.5c.3 1.1.1 1.8-.4 1.4-.5-.3-.9-1.2-.9-2 0-2 .7-1.7 1.3.6zm.4 6.2c-.3.8-.6.5-.6-.6-.1-1.1.2-1.7.5-1.3.3.3.4 1.2.1 1.9zM257 117.2c-1.5 10.6-1.6 11.4-2.5 18.3-.3 2.7-1 7.5-1.5 10.5s-1.2 8.2-1.6 11.5c-.3 3.3-.8 6.9-1 8-.2 1.1-1.8 12.1-3.4 24.5-1.7 12.4-3.5 25.2-4 28.5-.5 3.3-1.2 8-1.5 10.5-.3 2.5-.8 5.6-1 7-.2 1.4-.7 5-1 8-.6 5-.4 5.6 1.3 5.7 1.7.1 2.5-3 8.2-28.5 3.4-15.8 6.9-31.3 7.7-34.4.8-3.2 1.6-6.8 1.8-8 .5-2.7 3.1-14.4 8-36.1l3.6-15.7-2.2-4c-2.3-4-3.1-4.3-3.5-1.2-.2.9-1.2 6.4-2.4 12.2-1.1 5.8-2 11.5-2 12.7 0 1.3-.4 2.3-.9 2.3s-.7-.8-.5-1.8c.2-.9 1.5-8.2 2.9-16.1l2.6-14.4-2.3-4.4c-1.3-2.4-2.6-4.3-2.9-4.3-.3 0-1.2 4.2-1.9 9.2zm1 39.3c-.6 3.1-1.4 5.5-1.6 5.2-.2-.2.1-2.9.7-6.1.7-3.1 1.4-5.4 1.6-5.2.3.2-.1 3-.7 6.1zm-1.9 10.1c-.5 1.6-1 2.1-1 1.2-.1-1.8 1-5.1 1.5-4.5.2.1-.1 1.6-.5 3.3zm-1.8 8.5c-.6.6-.7-.3-.4-2.3.4-2.8.6-2.9.9-.9.2 1.3 0 2.7-.5 3.2zm-.9 6.3c-.3 2.1-.8 3.5-1.1 3.2-.2-.2-.1-2 .3-4 .3-2.1.8-3.5 1.1-3.2.2.2.1 2-.3 4zm-1.7 8.8c-.3.8-.6.5-.6-.6-.1-1.1.2-1.7.5-1.3.3.3.4 1.2.1 1.9zm-.4 3.3c-.3.9-.8 1.4-1 1.1-.3-.3-.2-.9.2-1.5.9-1.6 1.5-1.3.8.4zm-1.6 8.7c-.3.8-.6.5-.6-.6-.1-1.1.2-1.7.5-1.3.3.3.4 1.2.1 1.9zM182.6 147.8c-1.3 2.6-1.2 3.5 1.5 11.1 1.6 4.6 2.8 8.6 2.5 8.8-.2.2-1.2-2-2.2-4.9-.9-2.9-2.3-6.6-3-8.3l-1.2-3-1.7 3.6-1.7 3.5 6 14.4c3.3 8 10.8 26.4 16.7 41 5.9 14.6 11.6 28.4 12.6 30.7 1.1 2.3 1.9 4.6 1.9 5.2 0 .5.9.7 2.1.4 1.7-.5 1.9-1.1 1.3-3.6-.3-1.7-1-3.8-1.5-4.7-.4-.8-2.2-6.2-3.9-12-1.8-5.8-4.7-15.2-6.5-21-1.9-5.8-5.4-17-7.9-25-2.4-8-6.2-20-8.3-26.7-2.1-6.8-4.1-12.3-4.5-12.3-.4 0-1.4 1.3-2.2 2.8zm7.3 27.2c1.2 3 2.1 5.9 2 6.5 0 1.1-3.1-6.3-4.4-10.5-1.3-4.3.2-1.8 2.4 4zm3.4 10c.3 1.1.1 1.8-.4 1.4-.5-.3-.9-1.2-.9-2 0-2 .7-1.7 1.3.6zm4.1 10.6c.3.8.2 1.2-.4.9-.6-.3-1-1-1-1.6 0-1.4.7-1.1 1.4.7zm1.4 4.9c-.3.3-.9-.2-1.2-1.2-.6-1.4-.5-1.5.5-.6.7.7 1 1.5.7 1.8zM274 165.7c-3.4 10.9-7.3 22.9-8.6 26.8-16.8 51.6-18.6 57.8-17.3 58.6 1.9 1.1 2.2.6 6.4-9.1 2-4.7 4-9.4 4.5-10.5.5-1.1 4.1-9.7 7.9-19 3.8-9.4 7.7-18.8 8.7-21 1-2.2 1.9-4.5 2-5 .2-.6 2.7-6.8 5.7-13.9 5.5-12.9 5.5-13 3.9-16.3-1.4-3-1.8-3.2-2.4-1.6-.4 1-2.4 5.8-4.3 10.8-4.3 10.9-3.9 8.4.6-4 3-8.4 3.2-9.3 1.8-12.3-.7-1.7-1.6-3.2-2-3.2-.3 0-3.4 8.9-6.9 19.7zm1.6 13.4c-.9 1.9-1.5 2.9-1.6 2.2 0-1.5 2.2-6.4 2.7-6 .2.2-.3 1.9-1.1 3.8zm-2.5 6.6c-1.2 2-1.4 1.4-.5-1.2.4-.9.9-1.4 1.1-1.1.3.2 0 1.3-.6 2.3zm-2 5.4c-.5 1.3-1 1.9-1 1.2-.1-1.5 1-4.5 1.5-4 .3.2 0 1.5-.5 2.8zm-1.8 4.9c-.3 1.2-.8 1.9-1.1 1.6-.5-.6.5-3.6 1.2-3.6.2 0 .2.9-.1 2zm-2.2 5.7c-1.2 2-1.4 1.4-.5-1.2.4-.9.9-1.4 1.1-1.1.3.2 0 1.3-.6 2.3zm-1.8 5.3c-.3 1.1-1 2.3-1.6 2.7-.5.3-.8.2-.5-.3.3-.5.8-1.7 1.1-2.7.9-2.4 1.6-2.2 1 .3zm-2 5.5c-.3.9-.8 1.4-1 1.1-.3-.3-.2-.9.2-1.5.9-1.6 1.5-1.3.8.4zM166.9 175.4c-1 2-.6 3.3 2.5 8.6 2 3.3 3.2 5.9 2.7 5.5-.6-.3-2.2-2.8-3.7-5.5-1.5-2.8-3-5-3.4-5-.4 0-1.1 1-1.7 2.2-1 2.2.7 5.3 14.2 26.3 1.7 2.7 8.8 13.9 15.6 24.7 11.5 18.3 14 21.4 16.2 19.2.3-.4 0-1.6-.7-2.8-.7-1.1-5-9.3-9.6-18.1-4.5-8.8-12.5-24.3-17.8-34.5-5.3-10.2-10.1-19.5-10.6-20.7-1.4-2.9-2.4-2.9-3.7.1zm9.2 20.1c.7 1.3.3 1.2-1-.5-1.1-1.4-2.1-3-2.1-3.5 0-1.1 1.4.7 3.1 4zm3.3 6l1.7 3-2-2.4c-1.2-1.3-2.1-2.8-2.1-3.4 0-1.2 0-1.1 2.4 2.8zm4.4 8c-.3.3-.9-.2-1.2-1.2-.6-1.4-.5-1.5.5-.6.7.7 1 1.5.7 1.8zM190 220c.6 1.1.8 2 .6 2-.3 0-1-.9-1.6-2-.6-1.1-.8-2-.6-2 .3 0 1 .9 1.6 2zm6.4 10.6c.3.8.2 1.2-.4.9-.6-.3-1-1-1-1.6 0-1.4.7-1.1 1.4.7zM293.9 178.8c-1.5 2.6-5.5 10.1-8.9 16.7-3.4 6.6-7.5 14.2-9 17-1.5 2.7-5.6 10.4-9 17-3.4 6.6-7.5 14.3-9.1 17.2-3.4 6.2-3.4 5.9-1 6.6 1.5.4 2.9-1 6.5-6.7 2.5-3.9 12.4-19.4 22.1-34.4 9.6-15.1 17.5-27.7 17.5-28.1 0-.4-.6-1.6-1.4-2.6-1.2-1.7-1.5-1.5-4.1 2.8-1.5 2.6-2.9 4.7-3.2 4.7-.2 0 .9-2.4 2.5-5.3 2.4-4.2 2.8-5.6 1.9-7.5-.5-1.2-1.3-2.2-1.6-2.2-.3 0-1.8 2.1-3.2 4.8zm-1.4 14.1c-.8 1.7-1.9 3.3-2.5 3.6-.5.3-.1-1 1.1-2.9 2.5-4.3 3.6-4.8 1.4-.7zm-5.5 9.5c-3 4.9-3.6 4.6-.8-.3 1.2-2.2 2.4-3.8 2.6-3.6.3.2-.6 2-1.8 3.9zm-5.7 9.1c-.3.9-.8 1.4-1 1.1-.3-.3-.2-.9.2-1.5.9-1.6 1.5-1.3.8.4zM154.2 197c-1 1.7-.2 3.1 6.3 11 4.2 4.9 7.3 9 7.1 9-.3 0-3.7-3.8-7.7-8.5-6.5-7.7-7.3-8.4-8.4-6.8-1.7 2.2-1.7 2.2 8.2 12.9 4.5 4.9 9.1 10 10.3 11.4 2.6 3.1 16.1 17.7 22.4 24.5 2.8 2.9 4.9 4.5 5.2 3.8.3-.7 1.3-.9 2.2-.6 1.4.5 1.5.4.6-.8-.6-.8-2.9-3.7-5-6.5-2.2-2.8-9.6-12.5-16.5-21.5s-14.6-19.2-17.3-22.6c-5.7-7.5-5.9-7.7-7.4-5.3zm16.8 23.5c1.3 1.4 2.1 2.5 1.8 2.5-.2 0-1.5-1.1-2.8-2.5-1.3-1.4-2.1-2.5-1.8-2.5.2 0 1.5 1.1 2.8 2.5zm6.5 7.5c1 1.1 1.6 2 1.3 2-.3 0-1.3-.9-2.3-2-1-1.1-1.6-2-1.3-2 .3 0 1.3.9 2.3 2zM306.9 199.2c-1.3 1.7-2.8 3.6-3.4 4.2-.5.6-3.9 4.9-7.5 9.6-3.6 4.7-7 9.2-7.7 10-.7.8-5.5 7.1-10.7 14-5.3 6.9-10.5 13.6-11.6 14.8-2.4 2.9-2.5 3.8-.3 4.6 1.2.5 2.8-.4 5.3-3.2 3-3.4 12.4-13.7 22.4-24.6 1.5-1.7 4.9-5.4 7.5-8.1 14.8-15.8 14.3-15.2 13-17.6-1.1-2.2-1.2-2.2-5.6 2.7l-4.5 4.9 4-5.1c3-3.6 3.9-5.7 3.5-7.2-.7-3-1.6-2.8-4.4 1zm-5.6 15.1c-1.5 1.9-3 3.2-3.2 3-.5-.3 4.9-6.3 5.7-6.3.2 0-.9 1.5-2.5 3.3zm-6.8 7.5l-2.8 2.7 2.4-3.1c1.3-1.7 2.6-3 2.8-2.7.3.2-.8 1.6-2.4 3.1zm-2.5 3.6c0 .2-.8 1-1.7 1.7-1.6 1.3-1.7 1.2-.4-.4 1.3-1.6 2.1-2.1 2.1-1.3zm-10 11.9c0 .2-1 1.2-2.2 2.3l-2.3 1.9 1.9-2.3c1.8-2.1 2.6-2.7 2.6-1.9zM143.3 215.8c-.9 1.4-.5 2.4 2.5 5.7l3.7 4-3.8-3.5c-3.1-2.9-3.9-3.2-4.7-2-1.6 2.5-1.1 3.4 4.8 7.7 3.1 2.3 6.8 5.1 8.2 6.2 17.7 14.2 32.3 25.1 33.1 24.6.5-.4.6-1.2.2-1.8-.5-.8-.2-.8.9 0 2.5 2.1 2.9.2.5-2.1-2.4-2.2-19.7-18-25.1-23-1.7-1.5-5.6-5.1-8.6-7.9-11.4-10.5-10.4-9.8-11.7-7.9zm8.8 10.9c1.3 1.6 1.2 1.7-.3.4-1-.7-1.8-1.5-1.8-1.7 0-.8.8-.3 2.1 1.3zm6 5l2.4 2.8-3-2.5c-1.6-1.4-3.2-2.6-3.4-2.8-.2-.1 0-.2.6-.2.5 0 2 1.2 3.4 2.7zm6.5 5.5l2.9 3.3-3.2-2.9c-3.1-2.8-3.8-3.6-3-3.6.2 0 1.6 1.5 3.3 3.2zm5.5 4.5c1.3 1.6 1.2 1.7-.3.4-1-.7-1.8-1.5-1.8-1.7 0-.8.8-.3 2.1 1.3zm7 6c1.3 1.6 1.2 1.7-.3.4-1.7-1.3-2.2-2.1-1.4-2.1.2 0 1 .8 1.7 1.7zM316.5 218.8c-3.3 3-20.6 18.8-24.9 22.7-.6.5-5 4.5-9.8 8.9-4.9 4.3-8.8 8.3-8.8 8.9 0 .6.3.7.7.4.3-.4 1.2-.2 1.9.4.9.7 4.2-1.3 12.7-7.8 6.3-4.8 12.9-9.9 14.7-11.3 23-17.5 23.4-17.9 21.1-20.3-.5-.4-3.7 1.5-7.2 4.4l-6.4 5.1 5.5-5.1c3-2.8 5.8-5.1 6.3-5.1 1.2 0 .8-2.7-.6-3.8-.9-.8-2.3-.1-5.2 2.6zm-6.5 11.5c0 .2-1.5 1.6-3.2 3.3l-3.3 2.9 2.9-3.3c2.8-3 3.6-3.7 3.6-2.9zm-7 6.1c0 .2-.8 1-1.7 1.7-1.6 1.3-1.7 1.2-.4-.4 1.3-1.6 2.1-2.1 2.1-1.3zm-6 4.9c0 .2-1 1.2-2.2 2.3l-2.3 1.9 1.9-2.3c1.8-2.1 2.6-2.7 2.6-1.9zM133 234c-.6 1.1-.7 2-.3 2 .4 0-.1.6-1.1 1.3-2.9 2.1-1.6 3.6 6.9 8.1 4.4 2.3 14.1 7.4 21.6 11.4 7.5 4 14.3 7.2 15 7.2.8 0 2.2-.7 3.1-1.4 1.6-1.2-.4-2.7-18.4-14.2-11.1-7.1-21.5-13.7-23-14.6-2.6-1.7-2.8-1.7-3.8.2zm4 5c.8.5 1.1 1 .5 1-.5 0-1.7-.5-2.5-1s-1-1-.5-1c.6 0 1.7.5 2.5 1zm6 3.6c0 .2-.9 0-2-.6s-2-1.3-2-1.6c0-.2.9 0 2 .6s2 1.3 2 1.6zm7.1 4.1c1.3 1.7 1.3 1.7-.6.3-1.1-.8-2.2-1.6-2.4-1.7-.2-.2 0-.3.6-.3s1.7.8 2.4 1.7zm7 4c1.3 1.7 1.3 1.7-.6.3-1.1-.8-2.2-1.6-2.4-1.7-.2-.2 0-.3.6-.3s1.7.8 2.4 1.7zM314 243.6c-27 17.1-31 19.7-31 20.5 0 .4 1.2 1 2.6 1.3 2 .5 7.1-1.7 24.2-10.5 11.9-6.2 22.6-11.7 23.7-12.3 1.1-.6 2.1-1.2 2.3-1.3.2-.1-.1-1.1-.8-2.2-1-2-1.2-2-3.8-.5l-2.7 1.6 2.3-1.9c1.5-1.2 2.1-2.5 1.6-3.6-.3-.9-.9-1.7-1.3-1.6-.3 0-8 4.7-17.1 10.5zm11-1.2c0 .2-.7.7-1.6 1-.8.3-1.2.2-.9-.4.6-1 2.5-1.4 2.5-.6zm-7 4.1c-.7.8-1.7 1.5-2.3 1.5-.6 0-.2-.7.9-1.5 2.5-1.9 3-1.9 1.4 0zm-4 2c0 .2-1 .9-2.2 1.5-2.2 1.1-2.2 1-.4-.4 2.1-1.7 2.6-1.9 2.6-1.1zM122.9 250.9c-.1.6-.2 1.7-.3 2.3-.1.7-1 2-2.1 3-1.1.9-1.8 1.8-1.5 2.1.3.2 7.9 2.8 17 5.6 9.1 2.9 17.2 5.5 18 5.8 4.7 1.9 9.6 2.2 9.3.7-.1-.7.5-1.1 1.4-1 .9 0 1.7-.4 1.9-.9.2-.6-8.5-4.7-19.4-9.1-23-9.5-24.1-9.9-24.3-8.5zm5.6 5.9c-.3.3-1.1 0-1.8-.7-.9-1-.8-1.1.6-.5 1 .3 1.5.9 1.2 1.2zm4.5 1.2c.8.5 1.1 1 .5 1-.5 0-1.7-.5-2.5-1s-1-1-.5-1c.6 0 1.7.5 2.5 1zM322 258.3c-9.6 4-20.1 8.3-23.3 9.6-4.6 1.9-5.5 2.6-4.3 3.3.9.5 2.1.6 2.6.3.6-.3.7.1.4.9-.9 2.3.1 2.1 16.4-3 8.1-2.5 18.6-5.8 23.5-7.2 4.8-1.4 8.7-3.1 8.7-3.8 0-1.3-2.5-3.6-3.2-2.9-.2.3-.4-.5-.4-1.7.1-1.3-.6-2.3-1.4-2.4-.8-.2-9.4 3-19 6.9zm12 .4c-.8.3-2.4 1-3.5 1.5-2 .9-2 .9-.1-.6 1.1-.9 2.7-1.6 3.5-1.5 1.4 0 1.4.1.1.6zm-17 5.7c0 .2-.7.7-1.6 1-.8.3-1.2.2-.9-.4.6-1 2.5-1.4 2.5-.6zM225.8 257.5c-.2.2-2.9.5-6.1.9-20.8 2.2-44.6 12.7-62.9 27.9-2.7 2.1-4.8 4.4-4.7 5 .1 1.8 16.5 16.2 23.4 20.7 3.3 2.1 6.5 4.2 7 4.7 4.4 3.6 26.7 12.3 35.5 13.9 12 2.1 15.2 2.2 27.5.9 17.1-1.7 38.9-10.5 54.9-22 7.9-5.7 12.6-9.6 12.6-10.5 0-.3-1.6-2.3-3.6-4.4l-3.5-3.8-5.2 5.1c-14.4 14-31.8 23.4-54.2 29.2-5.4 1.4-23.4 1.8-30.2.7-16.3-2.7-32.8-9.7-47.9-20.4-9.4-6.6-9.4-6.6-3.8-11.9 15.3-14.2 35.2-24.7 55.3-28.9 6.4-1.4 25.5-1.5 32-.1 15.6 3.2 34.4 12.1 50.2 23.8.8.7-.1-.3-2-2.2-12.7-11.8-34.3-22.8-52.5-26.6-6.8-1.4-21-2.7-21.8-2zM112 270.1c-1.3 2.4-1.3 2.7.8 3.2 1.1.3.9.4-.4.2-1.7-.1-4.4 2.2-4.4 3.9 0 .2 2.4.7 5.3 1.1 2.8.4 6 .9 7.1 1.1 1 .2 4.4.6 7.5.9 3.1.4 6.3.8 7.1 1 .8.2 4.1.7 7.3 1 5.5.6 6 .5 8.8-2.3l3-3-3.8-.7c-6-1.1-6.9-1.3-22.6-4.9-14-3.1-14.8-3.2-15.7-1.5zm9.3 4.6c-.7.2-2.1.2-3 0-1-.3-.4-.5 1.2-.5 1.7 0 2.4.2 1.8.5zm5 1c-.7.2-1.9.2-2.5 0-.7-.3-.2-.5 1.2-.5s1.9.2 1.3.5zm7.1 1.2c.4.5-.3.7-1.4.4-2.3-.6-2.6-1.3-.6-1.3.8 0 1.7.4 2 .9zm8.3 1.7c-.3.3-1.2.4-1.9.1-.8-.3-.5-.6.6-.6 1.1-.1 1.7.2 1.3.5zM347.5 270c-1.6.5-11.9 2.7-22.9 5.1-16.8 3.6-19.6 4.4-18.1 5.5.9.7 2.4 1 3.3.7 1.3-.4 1.4-.2.4.4-1 .8-1 1.2.1 2.2.8.6 2.1.9 2.8.7.8-.3 3.9-.8 6.9-1.1 16.3-2 20.4-2.5 22.5-2.9 1.1-.2 4.8-.7 8.3-1.1 6.1-.7 7.5-1.8 5.1-4.2-.6-.6-1.6-2.1-2.3-3.4-1.3-2.7-2.2-3-6.1-1.9zm2 4.9c-.3.2-1.6.6-2.8.8-1.5.2-1.8 0-.9-.5 1.4-.9 4.5-1.2 3.7-.3zm-8.8 1.7c-.3.3-1.2.4-1.9.1-.8-.3-.5-.6.6-.6 1.1-.1 1.7.2 1.3.5zm-6.4 1.1c-.7.2-1.9.2-2.5 0-.7-.3-.2-.5 1.2-.5s1.9.2 1.3.5zm-4.6.9c-.3.3-1.2.4-1.9.1-.8-.3-.5-.6.6-.6 1.1-.1 1.7.2 1.3.5zm-11 2c-.3.3-1.2.4-1.9.1-.8-.3-.5-.6.6-.6 1.1-.1 1.7.2 1.3.5z"/><path d="M225.8 271c-3.9 1.1-10.6 5.1-11.2 6.7-.4 1-.1 1.1 1.2.5.9-.5 2.2-.8 2.7-.7.6.2 2.2.6 3.7.9 3.6.8 7.6 5.3 8.4 9.2.7 3.8-1.8 9.6-4.9 11.7-5.8 3.7-13.1 2.2-16.8-3.5l-2.1-3.3.5 5.8c1.6 17.1 19.6 27.7 35.3 20.8 9.2-4.1 14.3-11.3 15.1-21.5.5-5.3.2-7.2-1.9-11.7-2.9-6.3-6.6-10.3-12.3-13.2-4.2-2.1-13-3-17.7-1.7zM100 290.9c-.5 1.1-1 2.2-1 2.5 0 .3 6.9.7 15.3.9l15.2.3-16.1.2-16.1.2-1.1 2.5-1.2 2.6 19.3-.7c10.5-.4 22-.8 25.5-.8 3.4 0 6.2-.4 6.2-.7 0-1.4-3.4-3.4-5.4-3.2-1.7.2-1.8.1-.4-.5 3.3-1.4-.3-3.7-6.2-3.8-3-.1-11.7-.5-19.2-.8-12.9-.6-13.8-.5-14.8 1.3zm32.7 3.7c-.3.3-1.2.4-1.9.1-.8-.3-.5-.6.6-.6 1.1-.1 1.7.2 1.3.5zM340.6 290.7c-.1.1-4.9.4-10.6.7-5.8.2-10.7.5-10.9.5-.2.1.4 1 1.4 2.1 1 1.1 2.2 1.7 2.8 1.3.5-.3.7-.1.4.4-.4.6-.1 1.6.7 2.2 1.4 1.2 5.1 1.5 31.9 2.6l14.8.6-1.6-2.5c-1.3-1.9-2.7-2.6-5.4-2.8l-3.6-.1 3.3-.4c3.5-.5 3.8-.9 1.8-3.6-1.2-1.6-2.8-1.7-13.1-1.5-6.4.2-11.7.4-11.9.5zm-3.3 5c-.7.2-1.9.2-2.5 0-.7-.3-.2-.5 1.2-.5s1.9.2 1.3.5zm7.4-.1c-.3.3-1.2.4-1.9.1-.8-.3-.5-.6.6-.6 1.1-.1 1.7.2 1.3.5zm4 0c-.3.3-1.2.4-1.9.1-.8-.3-.5-.6.6-.6 1.1-.1 1.7.2 1.3.5zm5.6.1c-.7.2-2.1.2-3 0-1-.3-.4-.5 1.2-.5 1.7 0 2.4.2 1.8.5zm5 0c-.7.2-1.9.2-2.5 0-.7-.3-.2-.5 1.2-.5s1.9.2 1.3.5zM147 306c-2.5.4-7 1.1-10 1.4-6.1.7-11.4 1.4-16.2 2-37.1 4.8-34.3 4.3-35.7 7.2-1.4 3.2-1.4 3.2.7 3.7 1.1.3.9.5-.8.6-1.6.1-3.1 1.1-4.2 3-.9 1.6-1.4 3.2-1.2 3.4.3.3 4.4-.4 9.2-1.4 4.8-1.1 17.3-3.8 27.7-6 17.7-3.8 31.7-6.8 34-7.3.6-.2 2.7-.6 4.8-1.1 2-.4 3.7-.9 3.7-1.1 0-.9-5.3-5.4-6.3-5.3-.7.1-3.2.5-5.7.9zm-10.3 5.6c-.3.3-1.2.4-1.9.1-.8-.3-.5-.6.6-.6 1.1-.1 1.7.2 1.3.5zm-6.7.8c0 .2-.9.6-2 .9-1.1.3-1.8.1-1.4-.4.5-.9 3.4-1.3 3.4-.5zm-5.3 1.2c-.3.3-1.2.4-1.9.1-.8-.3-.5-.6.6-.6 1.1-.1 1.7.2 1.3.5zm-4.4 1.1c-.7.2-1.9.2-2.5 0-.7-.3-.2-.5 1.2-.5s1.9.2 1.3.5zm-9.7 1.2c-.3.5-2.6 1.2-5.2 1.6-2.5.3-5.4.8-6.4 1-1 .2-4 .6-6.7.9-4.2.5-4.4.4-1.3-.4 1.9-.5 5.5-1.2 8-1.5 3.6-.5 9.9-1.8 11.8-2.4.2-.1.1.3-.2.8zm4.7-.2c-.7.2-1.9.2-2.5 0-.7-.3-.2-.5 1.2-.5s1.9.2 1.3.5zM315.9 307.6c-.1.5-.1 1.3 0 1.7.1.5-.3.6-.7.3-.5-.3-1.6.2-2.5 1.2-1.5 1.6.5 2.2 33.6 9.6 43.8 9.8 41.2 9.4 39.9 7-2.3-4.1-3.9-5.3-8.2-5.8-7.9-1.1-11-1.8-11-2.7 0-.5 1-.5 2.3 0 3.1 1.2 12.7 2.4 12.7 1.6 0-.3-.7-1.6-1.6-3-1.5-2.3-2.2-2.5-13.4-4.1-4.8-.6-5.4-.7-13.9-1.9-3-.3-6.3-.8-7.4-1.1-1-.2-4.5-.6-7.6-1-3.1-.3-6.5-.8-7.6-1-5.2-1-14.5-1.5-14.6-.8zm8.4 4.1c-.7.2-1.9.2-2.5 0-.7-.3-.2-.5 1.2-.5s1.9.2 1.3.5zm6.4.9c-.3.3-1.2.4-1.9.1-.8-.3-.5-.6.6-.6 1.1-.1 1.7.2 1.3.5zm7 1c-.3.3-1.2.4-1.9.1-.8-.3-.5-.6.6-.6 1.1-.1 1.7.2 1.3.5zm4.6 1.1c-.7.2-1.9.2-2.5 0-.7-.3-.2-.5 1.2-.5s1.9.2 1.3.5zm7.2 1.3c.3.6-.1.7-.9.4-1.8-.7-2.1-1.4-.7-1.4.6 0 1.3.4 1.6 1zm11.2 1.5c2.4.4 4.5 1 4.8 1.4.4.8-6.6-.3-12-1.9l-3-.9 3 .4c1.7.2 4.9.7 7.2 1zM157 318.5c-4.1 1.3-16.3 5.1-27 8.5-24.8 7.9-50 15.7-56.7 17.7-4.6 1.4-5.6 2.2-7.8 6-2.1 3.8-2.2 4.4-.7 3.8.9-.3 6.7-2.4 12.7-4.5 6.1-2.1 15-5.2 19.9-7 4.9-1.7 9-2.9 9.2-2.7.3.2-3.5 1.8-8.3 3.5-16.7 5.7-31.4 11.2-34.1 12.4-2.5 1.2-7.6 8.7-6.6 9.7.2.2 1.4-.1 2.7-.7 1.2-.6 9.9-4.2 19.2-8 9.4-3.8 32.8-13.3 52-21.2 19.3-7.8 36.1-14.7 37.5-15.2l2.5-1-2.4-1.9c-2.8-2.3-2.8-2.3-12.1.6zm-7.5 6.5c-.3.5-1.2 1-1.8 1-.7 0-.6-.4.3-1 1.9-1.2 2.3-1.2 1.5 0zm-13 5c-2.7 1.2-4.3 1.2-2.5 0 .8-.5 2.2-.9 3-.9 1 0 .8.3-.5.9zm-7.8 2.6c-.3.3-1.2.4-1.9.1-.8-.3-.5-.6.6-.6 1.1-.1 1.7.2 1.3.5zM122 335c-.8.5-1.9 1-2.5 1-.5 0-.3-.5.5-1s2-1 2.5-1c.6 0 .3.5-.5 1zm-6.6 2.4c-5 2.2-8.2 2.7-3.9.7 2.2-1.1 4.7-2 5.5-2 .8 0 .1.6-1.6 1.3zM301.9 318.7c-.1.5-.1 1.2 0 1.6.1.5-.3.6-.9.2-.5-.3-1.7-.2-2.6.3-1.3.7-1.3 1-.3 1.5.8.3 9.7 4 19.9 8.2 69 28.7 90.3 37.5 90.7 37.2.2-.2-.6-2.3-1.8-4.5-1.8-3.2-3.3-4.5-7.3-6.1-7.4-2.9-47.7-17.7-50.4-18.6-1.3-.4-2.1-.9-1.9-1.1.4-.4 37.5 12.6 50 17.6 5.3 2.1 5.8 1.5 2.7-3.5-1.9-3.1-3.4-3.8-22.8-10-11.4-3.7-32.4-10.4-46.7-15.1-26.2-8.4-28.4-9-28.6-7.7zM329 330c.8.5 1.1 1 .5 1-.5 0-1.7-.5-2.5-1s-1-1-.5-1c.6 0 1.7.5 2.5 1zm11 4c1.3.8 1.3 1-.2 1-.9 0-2-.5-2.3-1-.8-1.3.5-1.3 2.5 0zm5 2c.8.5 1.1 1 .5 1-.5 0-1.7-.5-2.5-1s-1-1-.5-1c.6 0 1.7.5 2.5 1zM170 327.3c-4.1 2.1-13.3 6.9-20.5 10.6-7.1 3.8-21.5 11.3-32 16.7-10.4 5.3-26.2 13.5-35 18.1-8.8 4.6-21.1 10.9-27.3 14.1-10.7 5.4-11.3 5.9-12.4 9.7-1.5 5.3-1.7 6.5-1.1 6.5.3 0 9.1-4.9 19.7-10.9 10.5-6 20.7-11.8 22.6-12.8 10.6-6 42-23.8 45-25.6 1.9-1.1 3.1-1.5 2.5-.9-.5.6-9.5 6-20 11.9-48.8 28-68.5 39.6-68.5 40.2 0 1.3 9 3.2 10.8 2.2 1.5-.8 31.6-19.7 75.7-47.4 8.3-5.2 23.4-14.7 33.8-21.2C173.6 332 182 326.4 182 326c0-.4-1-1.1-2.2-1.7-1.9-.7-3.7-.2-9.8 3zm-20 15.1c0 .2-.7.7-1.6 1-.8.3-1.2.2-.9-.4.6-1 2.5-1.4 2.5-.6zm-8.4 5.1c-1.1.8-2.5 1.5-3 1.5-.6-.1 0-.7 1.4-1.5 3.2-1.9 4-1.8 1.6 0zm-5.6 3c-.7.8-1.7 1.5-2.3 1.5-.6 0-.2-.7.9-1.5 2.5-1.9 3-1.9 1.4 0zM288.5 327c.3.5 0 .7-.8.4-.8-.3-1.7-.1-2 .3-.3.5 5.1 4.5 12.1 9 7 4.4 19.2 12.3 27.2 17.4 8 5.1 30.7 19.6 50.5 32.2l35.9 22.9 5.5-1.2c6.6-1.5 7.2-.8-10.8-11.1-6.9-4-12.7-7.7-12.9-8.1-.2-.4-.8-.8-1.3-.8-.6 0-3.5-1.6-6.5-3.5s-5.7-3.5-5.9-3.5c-.3 0-3.4-1.7-6.8-3.9-3.4-2.1-10.4-6.2-15.4-9-5.1-2.9-9.3-5.5-9.3-5.8 0-.3 2.6 1 5.8 2.8 3.1 1.7 8.4 4.7 11.7 6.6 3.3 1.9 6.7 3.8 7.5 4.3.8.5 4 2.4 7 4.1 6.2 3.6 6.6 3.8 24 13.9 6.9 4 14 8.1 15.8 9.1l3.2 1.9-.5-3c-1.4-7.8-.9-7.5-27-21-7.7-4-15.3-8-17-9-1.6-.9-9.7-5.2-18-9.5-8.2-4.3-17.2-9-20-10.5-4.9-2.7-7.7-4.1-35.6-18.8-12.6-6.7-17.9-8.7-16.4-6.2zm33.4 19.6c1.4 1.2-1.9.1-3.5-1.2-1.8-1.4-1.8-1.4.6-.3 1.4.6 2.7 1.3 2.9 1.5zm8.1 5c0 .7-5.8-2.5-6.5-3.6-.3-.5 1-.1 2.9 1.1 2 1.2 3.6 2.3 3.6 2.5zm15.1 8.7c2 1.6 1.9 1.5-1.1-.1-8.2-4.5-13-7.4-13-7.9s10.9 5.6 14.1 8zM184.5 331.6c-1.6 1.3-3.4 2.8-4 3.2-3.9 2.9-36.5 27.8-43 32.7-4.4 3.4-16.1 12.4-26 19.9-9.9 7.5-18.7 14.2-19.5 14.9-.8.7-2.8 2.3-4.5 3.5-1.6 1.3-2.9 2.6-2.7 3 .2.5 3.8.6 8.5.3.7-.1 7.6-5.3 15.3-11.7 24-20 27-22.4 27.8-22.4.4 0-3.7 3.6-9.1 8.1-10.6 8.7-11.9 9.8-20.3 16.9-3 2.6-6.5 5.6-7.7 6.6-1.3 1-2.3 2.1-2.3 2.4 0 .4 4.4.4 8.5 0 .6 0 3-1.9 5.5-4.1 2.5-2.3 6.3-5.7 8.6-7.7 2.2-2.1 8.1-7.3 13-11.8a2376 2376 0 0 0 15.4-14c3.6-3.2 7-6.3 7.6-6.9.6-.5 4.4-3.9 8.4-7.5 4.1-3.6 8.5-7.6 9.9-9 1.4-1.4 6.1-5.6 10.4-9.4 6.1-5.5 7.5-7.1 6.6-8.2-1.6-2-3-1.7-6.4 1.2zM171 346.4c0 .2-.8 1-1.7 1.7-1.6 1.3-1.7 1.2-.4-.4 1.3-1.6 2.1-2.1 2.1-1.3zm-4 2.9c0 .2-1.5 1.6-3.2 3.3l-3.3 2.9 2.9-3.3c2.8-3 3.6-3.7 3.6-2.9zm-8.5 7.7c-1 1.1-2.2 2-2.8 2-.5 0 .1-.9 1.4-2 3.1-2.5 3.7-2.5 1.4 0zm-4.5 3.3c0 .2-1 1.2-2.2 2.3l-2.3 1.9 1.9-2.3c1.8-2.1 2.6-2.7 2.6-1.9zm-10 8.7c-3 2.7-5.9 5-6.3 5-.5 0 1.8-2.2 5-5 7.5-6.4 8.4-6.4 1.3 0zM278 332.1c0 .5-.4.7-1 .4-.5-.3-1.5-.3-2 0-.6.4 1.3 2.7 4.2 5.3 2.9 2.6 6.6 6 8.4 7.7 1.7 1.6 7.5 7 12.9 12 5.4 4.9 11 10.1 12.5 11.5 1.5 1.4 5.2 4.7 8.2 7.5 3 2.7 10.2 9.3 15.9 14.6 21.4 19.6 19.6 18.2 23.9 18 5.1-.2 6.7-.2 11 0 7.3.3 7.4.1.5-5.6-3.7-3-7-5.5-7.4-5.5-.3 0-1.9-1.3-3.6-2.8-1.6-1.5-4.6-3.9-6.5-5.2-1.9-1.3-3.7-2.7-4-3-.3-.3-8.6-6.9-18.5-14.5s-26-20.1-35.7-27.7c-9.8-7.6-18-13.8-18.3-13.8-.3 0-.5.5-.5 1.1zm14.1 12.6c1.3 1.6 1.2 1.7-.3.4-1-.7-1.8-1.5-1.8-1.7 0-.8.8-.3 2.1 1.3zm8.4 7.3c1 1.1 1.6 2 1.3 2-.3 0-1.3-.9-2.3-2-1-1.1-1.6-2-1.3-2 .3 0 1.3.9 2.3 2zm7.8 6.9c-.2.3-1.6-.8-3.1-2.4l-2.7-2.8 3.1 2.4c1.7 1.3 3 2.6 2.7 2.8zm4.7 3.6c1.3 1.4 2.1 2.5 1.8 2.5-.2 0-1.5-1.1-2.8-2.5-1.3-1.4-2.1-2.5-1.8-2.5.2 0 1.5 1.1 2.8 2.5zm7.9 6.6c1.3 1.1 2.2 2.1 2 2.3-.2.3-1.7-.7-3.2-2-1.5-1.3-2.4-2.4-2-2.4.4.1 1.9 1 3.2 2.1zm21.7 18.4c1.1 1.1 3.8 3.3 5.9 5 2.2 1.6 4.9 3.9 6.1 5 1.3 1.1 4.3 3.6 6.8 5.5s4.5 3.9 4.6 4.3c0 .9-5.6-3.3-11.5-8.4-2.7-2.3-13.8-11.9-21.9-18.9-7.9-6.7-8.2-7.5-.6-1.4 4.7 3.8 9.4 7.8 10.6 8.9zM190.3 340.7c-10 11-11.5 12.6-21.7 23.7-5 5.5-10.4 11.4-12.1 13.1-1.6 1.8-6.6 7.2-11 12-4.4 4.9-10.1 11.1-12.7 13.9-2.6 2.7-4.5 5.4-4.2 5.8.7 1.1 6.7-.2 7.9-1.7 1.2-1.5 8.2-9.5 17.4-20.2 3.5-4 6.5-7.3 6.8-7.3.3 0-.8 1.5-2.3 3.3-1.6 1.8-4.9 5.7-7.4 8.6-2.5 3-6.6 7.9-9.2 10.9-2.7 3-4.8 5.8-4.8 6.2 0 .3 1.6.4 3.5.2 3.3-.4 5.1-2.5 29.2-33.6 14.1-18.2 27-34.8 28.7-36.9 2.5-3.2 2.8-4 1.6-4.7-.8-.6-1.7-1-2-1-.3 0-3.7 3.5-7.7 7.7zm-8.3 14.7c0 .2-.8 1-1.7 1.7-1.6 1.3-1.7 1.2-.4-.4 1.3-1.6 2.1-2.1 2.1-1.3zm-6 7c0 .2-.8 1-1.7 1.7-1.6 1.3-1.7 1.2-.4-.4 1.3-1.6 2.1-2.1 2.1-1.3zm-5 5.9c0 .2-1.2 1.4-2.7 2.8l-2.8 2.4 2.4-2.8c2.3-2.5 3.1-3.2 3.1-2.4zm-5 6c0 .2-1.2 1.4-2.7 2.8l-2.8 2.4 2.4-2.8c2.3-2.5 3.1-3.2 3.1-2.4zM267.4 335.9c.4.5-.4.7-1.6.3l-2.2-.5 1.9 2.5c1.1 1.5 13.5 17.6 27.5 35.9 14 18.3 25.7 33.6 26 34 .3.5 2.2 1 4.3 1.2l3.7.4-2.7-3.6c-1.5-2-7.2-9-12.7-15.6-5.4-6.6-9.1-11.2-8-10.2 1 1 7.1 7.9 13.4 15.4 10.3 12.2 11.8 13.7 14.8 13.7 1.7.1 3.2-.2 3.2-.5 0-.7-7.5-9.5-12-14-1.4-1.4-5.2-5.6-8.5-9.4-3.3-3.8-6.9-7.8-8-9-1.1-1.1-5.6-6-10-10.9-9-9.9-9-9.9-19.9-21.9-4.3-4.8-8.3-8.7-8.8-8.7s-.7.4-.4.9zm20.7 24.8c1.3 1.6 1.2 1.7-.3.4-1.7-1.3-2.2-2.1-1.4-2.1.2 0 1 .8 1.7 1.7zm3 4c1.3 1.6 1.2 1.7-.3.4-1.7-1.3-2.2-2.1-1.4-2.1.2 0 1 .8 1.7 1.7zm5 6c1.3 1.6 1.2 1.7-.3.4-1-.7-1.8-1.5-1.8-1.7 0-.8.8-.3 2.1 1.3zm2.9 3.3c0 .5-.2 1-.4 1-.3 0-.8-.5-1.1-1-.3-.6-.1-1 .4-1 .6 0 1.1.4 1.1 1zM201.9 342.7c-2.4 3.8-4.8 7.6-5.4 8.6-.5.9-4 6.3-7.6 12-16.8 25.8-28.9 45-28.9 45.7 0 1.8 5.8-.4 7.3-2.8.9-1.5 1.7-2.2 1.7-1.5 0 .6-.4 1.5-1 1.8-1.7 1.1-1.1 2.2 1.4 2.7 2.6.5 1.9 1.6 12.3-18.2 3.1-5.8 7.5-14.1 9.8-18.5 2.3-4.4 7.1-13.4 10.5-20 3.5-6.6 6.8-12.6 7.3-13.3.8-1 .7-1.6-.4-2.3-2.3-1.4-2.5-1.2-7 5.8zm-16.3 33.1c-1.7 1.6-1.8 1.6-.5-.5.7-1.2 1.5-2 1.8-1.7.3.2-.3 1.2-1.3 2.2zm-5.1 9.2c-.9 1.6-1.8 3-2.1 3-.2 0 .2-1.4 1.1-3 .9-1.7 1.8-3 2.1-3 .2 0-.2 1.3-1.1 3zm-3.9 6.7c-.8 1.6-2.2 3.7-3.1 4.8-1.6 1.9-1.7 1.9-.3-.5.8-1.4 2-3.5 2.7-4.8.6-1.2 1.4-2.2 1.7-2.2.2 0-.2 1.2-1 2.7zm-6 10.1c-1.7 1.6-1.8 1.6-.5-.5.7-1.2 1.5-2 1.8-1.7.3.2-.3 1.2-1.3 2.2zM258 337.7c0 .7-.3 1.2-.7 1-2.5-.8-1.9.4 14.6 32.3 4.4 8.5 10.6 20.5 13.8 26.7 5.4 10.6 7.1 12.5 10 11.6 1-.4.9-1.2-.3-3.6-1.9-3.7-.9-3 1.5 1 1.1 1.7 2.6 2.7 4.4 2.7 1.7.1 2.6-.3 2.3-1-.2-.6-8.2-13.4-17.6-28.5-26.2-41.8-27.9-44.3-28-42.2zm20.8 37.8c-.3.3-.9-.2-1.2-1.2-.6-1.4-.5-1.5.5-.6.7.7 1 1.5.7 1.8zm5.2 8.5c.6 1.1.8 2 .6 2-.3 0-1-.9-1.6-2-.6-1.1-.8-2-.6-2 .3 0 1 .9 1.6 2zm2.8 5.5c-.3.3-.9-.2-1.2-1.2-.6-1.4-.5-1.5.5-.6.7.7 1 1.5.7 1.8zm3.5 5.5c.7 2.9.1 2.4-1.7-1.1-1.2-2.3-1.2-2.8-.2-2 .8.7 1.6 2.1 1.9 3.1zm2.7 5c.6 1.1.8 2 .6 2-.3 0-1-.9-1.6-2-.6-1.1-.8-2-.6-2 .3 0 1 .9 1.6 2zM199.8 373.4c-8 19.3-14.4 35.4-14.2 35.8.9 1.4 4.2-.6 5.8-3.5.9-1.8 1.4-2.3 1-1.2-1.7 5.2-1.7 5.3 1 4.8 2.3-.5 3-2 8.7-19.7 3.3-10.5 8.1-25.2 10.5-32.6 5.1-15.7 5.5-18.2 3.4-18.5-1.2-.2-5.3 8.8-16.2 34.9zm2.3 3.9c-1 .9-1.1.8-.5-.6.3-1 .9-1.5 1.2-1.2.3.3 0 1.1-.7 1.8zm-3 9c-1 .9-1.1.8-.5-.6.3-1 .9-1.5 1.2-1.2.3.3 0 1.1-.7 1.8zm-2 5.4c-1.2 2-1.4 1.4-.5-1.2.4-.9.9-1.4 1.1-1.1.3.2 0 1.3-.6 2.3zm-2 6c-1.2 2-1.4 1.4-.5-1.2.4-.9.9-1.4 1.1-1.1.3.2 0 1.3-.6 2.3zM248.8 339.8c-2.3.5-2.3.1 1.1 10.7 1.6 4.9 4.8 15.1 7.1 22.5 12.5 40.4 10.8 37.1 18.2 36l3.7-.5-12.6-30.5c-6.8-16.8-12.9-31.6-13.5-33-.6-1.4-1.2-3.1-1.4-3.8-.3-1.8-.6-1.9-2.6-1.4zm12 33.7c-.3.3-.9-.2-1.2-1.2-.6-1.4-.5-1.5.5-.6.7.7 1 1.5.7 1.8zm2.6 6.1c.3.8.2 1.2-.4.9-.6-.3-1-1-1-1.6 0-1.4.7-1.1 1.4.7zm3.6 9.9c0 .5-.5.3-1-.5s-1-2-1-2.5c0-.6.5-.3 1 .5s1 1.9 1 2.5zm3.3 9.5c.3 1.1.2 1.8-.3 1.5-.4-.3-1-1.4-1.3-2.5-.3-1.1-.2-1.8.3-1.5.4.3 1 1.4 1.3 2.5zm2.6 8c0 .9-.4.8-.9-.5-.5-1.1-.9-2.7-.9-3.5 0-.9.4-.8.9.5.5 1.1.9 2.7.9 3.5zM222.6 340.8c-.4.7-2.8 10.5-4 16.3-.3 1.3-3 13.4-6 26.8-3 13.5-5.3 24.7-5.1 25 .6.6 8.4.5 9-.1.2-.2.7-2.6 1.1-5.3.3-2.8.7-5.7.9-6.5.1-.8.6-4.4 1.1-8 .4-3.6.8-6.7.9-7 .1-.3.5-3.4.9-7 .5-3.6 1-7.4 1.2-8.5.2-1.1.6-4.1.9-6.6.3-2.5.8-5.6 1-7 .3-1.3.7-4.8 1-7.7.3-4 .1-5.2-1-5.2-.7 0-1.6.4-1.9.8zm-6.5 45.5c-1 .9-1.1.8-.5-.6.3-1 .9-1.5 1.2-1.2.3.3 0 1.1-.7 1.8zm-2.4 15.4c-.3 1-.5.4-.5-1.2 0-1.7.2-2.4.5-1.8.2.7.2 2.1 0 3zM238.8 341.2c-.3.7-.1 3.3.4 5.7.4 2.5 1 6.5 1.3 9 .7 6.4 1.4 12.1 2 15.6.2 1.6.7 5.3 1 8.1.3 2.8.7 5.9.9 7 .2 1 .9 6.5 1.6 12.1l1.3 10.3h5c4.8 0 4.9 0 4.3-2.7-.9-3.2-8.2-36.6-10.7-48.8-2.7-13-2.9-13.8-3.5-15.8-.6-2-3-2.3-3.6-.5zm12.9 66c-.3.8-.6.5-.6-.6-.1-1.1.2-1.7.5-1.3.3.3.4 1.2.1 1.9zM229.9 347.7c-.1 3.8-.2 9-.4 11.8-.1 2.7-.5 12.6-.9 22-.4 9.3-.9 19.3-1.1 22.2l-.3 5.1 3.9.4c2.2.2 4.4.1 4.9-.2.5-.3.7-4.1.5-8.5-.5-12.8-1.9-50.6-1.9-55.2-.1-3.8-.4-4.3-2.3-4.3-2.2 0-2.3.4-2.4 6.7zm2.8 55.8c0 .8-.4 1.2-.9.9-.5-.3-.6-1-.3-1.5.9-1.3 1.2-1.1 1.2.6zM450 408c.6 1.1 1.3 2 1.6 2 .2 0 0-.9-.6-2s-1.3-2-1.6-2c-.2 0 0 .9.6 2zM440.7 416.6c-.1.1-17.5.5-38.7.8-21.2.4-50 .9-64 1.1-14 .3-39 .7-55.5 1-35.5.6-86.5 1.4-116.5 2-24.7.4-87.9 1.5-114.8 2-10.1.1-18.6.5-18.9.9-.4.3 7.2.6 16.8.7 9.6 0 23.3.2 30.4.4 7.2.1 31 .6 53 .9 22 .4 51 .9 64.5 1.1 13.5.3 38.5.7 55.5 1 17.1.3 43.6.7 59 1 15.4.3 40.6.7 56 1 15.4.3 42.5.7 60.3 1l32.3.6-.3-7.8-.3-7.8h-9.3c-5.2 0-9.4.1-9.5.1zM29.5 424c-.3.5-.1 1 .4 1 .6 0 1.1-.5 1.1-1 0-.6-.2-1-.4-1-.3 0-.8.4-1.1 1zM25.8 424.7c.7.3 1.6.2 1.9-.1.4-.3-.2-.6-1.3-.5-1.1 0-1.4.3-.6.6z"/></svg>